# xmcd
#
# Track frame offsets:
# 150
# 23906
# 46308
# 61246
# 85341
# 102172
# 118029
# 136752
# 154281
# 180025
# 197622
# 220884
#
# Disc length: 3209 seconds
#
# Revision: 2
# Processed by: cddbd v1.5.1PL2 Copyright (c) Steve Scherf et al.
# Submitted via: Axialis_AX_CDPlayer 2.6
#
DISCID=980c870c
DTITLE=Nicole - Night Tree
DYEAR=1900
DGENRE=New Age
TTITLE0=Night Tree
TTITLE1=Spirit Riders
TTITLE2=Sunflake Children
TTITLE3=Liquid Dusk
TTITLE4=Shadow Whispers
TTITLE5=Saddend Rain
TTITLE6=Lakota Sunrise
TTITLE7=We Creatures
TTITLE8=Transparent
TTITLE9=Cool Fire
TTITLE10=Crossing the Waters
TTITLE11=Clarity
EXTD=
EXTT0=
EXTT1=
EXTT2=
EXTT3=
EXTT4=
EXTT5=
EXTT6=
EXTT7=
EXTT8=
EXTT9=
EXTT10=
EXTT11=
PLAYORDER=
